# xmcd
#
# Track frame offsets:
#	300
#	25493
#	45911
#	67409
#	87075
#	110167
#	134214
#	184899
#	199838
#	226300
#	240239
#	277320
#	303013
#	323827
#	353461
#	371671
#
# Disc length: 5349 seconds
#
# Revision: 0
# Processed by: cddbd v1.5.1PL2 Copyright (c) Steve Scherf et al.
# Submitted via: dBpowerAMP V4.0
#
DISCID=f514e110
DTITLE=New Riders of the Purple Sage - Live - 10-30-71
DYEAR=1971
DGENRE=Country
TTITLE0=Sam Cutler band member intro 
TTITLE1=Working Man Blues
TTITLE2=Superman
TTITLE3=Down In The Boondocks
TTITLE4=Cecilia
TTITLE5=Dim Lights
TTITLE6=Dirty Business
TTITLE7=Truck Drivin' Man 
TTITLE8=Lochinvar
TTITLE9=Hello
TTITLE10=The Weight
TTITLE11=Glendale Train
TTITLE12=Lodi
TTITLE13=Last Lonely Eagle
TTITLE14=Louisiana Lady
TTITLE15=Willie And The Hand Jive
EXTD=It usually comes in two CDs
EXTT0=
EXTT1=
EXTT2=
EXTT3=
EXTT4=
EXTT5=
EXTT6=
EXTT7=
EXTT8=
EXTT9=
EXTT10=
EXTT11=
EXTT12=
EXTT13=
EXTT14=
EXTT15=
PLAYORDER=
